inDegrees=yes
name=ik_Xsens_quaternion
DataType=double
version=3
OpenSimVersion=4.4-2022-07-23-0e9fedc
endheader
time	pelvis_tilt	pelvis_list	pelvis_rotation	pelvis_tx	pelvis_ty	pelvis_tz	hip_flexion_r	hip_adduction_r	hip_rotation_r	knee_angle_r	knee_angle_r_beta	ankle_angle_r	subtalar_angle_r	mtp_angle_r	hip_flexion_l	hip_adduction_l	hip_rotation_l	knee_angle_l	knee_angle_l_beta	ankle_angle_l	subtalar_angle_l	mtp_angle_l	lumbar_extension	lumbar_bending	lumbar_rotation	arm_flex_r	arm_add_r	arm_rot_r	elbow_flex_r	pro_sup_r	wrist_flex_r	wrist_dev_r	arm_flex_l	arm_add_l	arm_rot_l	elbow_flex_l	pro_sup_l	wrist_flex_l	wrist_dev_l
10	4.398623405716211	-60.11012694652993	-28.07642276234619	0	0.9399999999999999	0	44.85358210461212	-10.00177004644435	0	60.08898355080269	1.04875060713822	-5.000200149815312	0	0	44.85358210461212	-10.00177004644435	0	60.08898355080269	1.04875060713822	-5.000200149815312	0	0	-1.200404205607074	-29.05385702499828	-9.416285102668748	0	-13.93577352203697	0	75.00312159718308	44.99751589387965	0	0	-5.367549271257488	22.99526669360965	7.585972111393524	40.54203023960488	44.99751589387965	0	0
10.01666666666667	4.403064774770172	-60.14149424409324	-28.07802028388907	0	0.9399999999999999	0	44.85358343498367	-10.00176999448016	0	60.0889828774045	1.048750595385205	-5.000200142259486	0	0	44.85358343498367	-10.00176999448016	0	60.0889828774045	1.048750595385205	-5.000200142259486	0	0	-1.191324748148781	-29.06402147567539	-9.420330490570983	0	-13.93577869437156	0	75.00312157041785	44.99751595237638	0	0	-5.357757969799819	23.00425808593638	7.594323544899813	40.54939274156416	44.99751595237638	0	0
10.03333333333333	4.416956124954693	-60.20425389840263	-28.10757035515688	0	0.9399999999999999	0	44.85401132929672	-10.00175259457535	0	60.08877902742616	1.048747037531903	-5.00019761571289	0	0	44.85401132929672	-10.00175259457535	0	60.08877902742616	1.048747037531903	-5.00019761571289	0	0	-1.196609692768538	-29.04516823431719	-9.418437369204955	0	-13.93738056488778	0	75.00311296177912	44.9975354912858	0	0	-5.357215819905097	22.98737360060234	7.595121907655921	40.61102940533067	44.9975354912858	0	0
10.05	4.436635633105926	-60.27295841708332	-28.12945352040796	0	0.9399999999999999	0	44.85446362891846	-10.00173396853049	0	60.08856374344824	1.048743280117661	-5.00019489711727	0	0	44.85446362891846	-10.00173396853049	0	60.08856374344824	1.048743280117661	-5.00019489711727	0	0	-1.190682458756344	-29.01909335105946	-9.419297713207076	0	-13.9390695905215	0	75.00310386214028	44.99755633122891	0	0	-5.3462967846064	22.9611748199912	7.601915523913564	40.70049298884758	44.99755633122891	0	0
10.06666666666667	4.479778913262662	-60.29176726139322	-28.15494837146234	0	0.9399999999999999	0	44.85447802263375	-10.00173337196125	0	60.08855685334603	1.048743159862692	-5.000194809649486	0	0	44.85447802263375	-10.00173337196125	0	60.08855685334603	1.048743159862692	-5.000194809649486	0	0	-1.175200334881912	-29.00412641472871	-9.440030769979934	0	-13.93912345554057	0	75.00310357255876	44.99755699682385	0	0	-5.342353890066169	22.94392599106554	7.621306164257166	40.85104152199011	44.99755699682385	0	0
10.08333333333333	4.529670967326761	-60.31220385166874	-28.19126271707422	0	0.9399999999999999	0	44.85449226125483	-10.00173278138683	0	60.08855004245666	1.048743040990247	-5.000194723052469	0	0	44.85449226125483	-10.00173278138683	0	60.08855004245666	1.048743040990247	-5.000194723052469	0	0	-1.161674382103441	-28.99166605530745	-9.464204647763143	0	-13.93917671400341	0	75.00310328609754	44.99755765566022	0	0	-5.342089867597483	22.92956250820086	7.642698856599245	41.00740611538639	44.99755765566022	0	0
10.1	4.574626283592076	-60.33870565569336	-28.23111908817242	0	0.9399999999999999	0	44.85450670492371	-10.00173218152409	0	60.08854314176143	1.048742920550395	-5.000194635075704	0	0	44.85450670492371	-10.00173218152409	0	60.08854314176143	1.048742920550395	-5.000194635075704	0	0	-1.152279226463902	-28.98901085277607	-9.487680169421832	0	-13.93923069481739	0	75.00310299551109	44.99755832472064	0	0	-5.344461192384643	22.92576912505275	7.663318106430566	41.12474770905003	44.99755832472064	0	0
10.11666666666667	4.628830751488841	-60.36559602653574	-28.28326788841987	0	0.9399999999999999	0	44.85452028362418	-10.00173161775678	0	60.0885366538088	1.04874280731426	-5.00019455240211	0	0	44.85452028362418	-10.00173161775678	0	60.0885366538088	1.04874280731426	-5.00019455240211	0	0	-1.14466218325591	-28.98663169530506	-9.515602386163613	0	-13.93928144742038	0	75.00310272232652	44.99755895357269	0	0	-5.351242771023364	22.9226398243376	7.686388502059504	41.25185168279986	44.99755895357269	0	0
10.13333333333333	4.681301384425578	-60.3925677332679	-28.32950636216527	0	0.9399999999999999	0	44.85453386486553	-10.00173105390177	0	60.0885301655293	1.04874269407242	-5.000194469720541	0	0	44.85453386486553	-10.00173105390177	0	60.0885301655293	1.04874269407242	-5.000194469720541	0	0	-1.13262781773656	-28.98329363759516	-9.542276761378565	0	-13.93933220614287	0	75.00310244909082	44.99755958254262	0	0	-5.352531905255476	22.9176279190368	7.710285885804566	41.36622207283929	44.99755958254262	0	0
10.15	4.744528492706634	-60.41570567848837	-28.3845678476487	0	0.9399999999999999	0	44.85454869873281	-10.00173043852473	0	60.08852307569004	1.048742570331381	-5.000194379503141	0	0	44.85454869873281	-10.00173043852473	0	60.08852307569004	1.048742570331381	-5.000194379503141	0	0	-1.122643495142857	-28.97302570435909	-9.573426034397389	0	-13.93938766582382	0	75.00310215065404	44.99756026910049	0	0	-5.359705180805	22.90618819751115	7.735503303516202	41.540245411272	44.99756026910049	0	0
10.16666666666667	4.81784918911946	-60.43550337803947	-28.4433360456007	0	0.9399999999999999	0	44.85456206376468	-10.00172988553228	0	60.08851667568041	1.048742458630141	-5.000194298477575	0	0	44.85456206376468	-10.00172988553228	0	60.08851667568041	1.048742458630141	-5.000194298477575	0	0	-1.110144763953151	-28.95361521207453	-9.607578855504038	0	-13.93943770389983	0	75.0031018817682	44.9975608863619	0	0	-5.367247322562243	22.88525826462791	7.762539812375246	41.77296417911904	44.9975608863619	0	0
10.18333333333333	4.884369508190174	-60.46157044977068	-28.49499026081593	0	0.9399999999999999	0	44.85457585685658	-10.0017293144279	0	60.08851007553225	1.048742343435824	-5.000194214791573	0	0	44.85457585685658	-10.0017293144279	0	60.08851007553225	1.048742343435824	-5.000194214791573	0	0	-1.09490484976873	-28.93814123530094	-9.640187169105342	0	-13.93948931913401	0	75.00310160427036	44.99756152377917	0	0	-5.370167068870006	22.8677902584288	7.790246979494044	41.98332312386596	44.99756152377917	0	0
10.2	4.943855342801301	-60.49405544143353	-28.55300857351711	0	0.9399999999999999	0	44.85458967634905	-10.00172874226466	0	60.0885034635978	1.048742228035798	-5.000194130956175	0	0	44.85458967634905	-10.00172874226466	0	60.0885034635978	1.048742228035798	-5.000194130956175	0	0	-1.090169353913313	-28.93342279855176	-9.671445173745992	0	-13.93954103007292	0	75.00310132624143	44.99756216240328	0	0	-5.382327538383706	22.86324237959122	7.814210395982207	42.18418357590176	44.99756216240328	0	0
10.21666666666667	4.973836366633185	-60.52136342923998	-28.58625220239148	0	0.9399999999999999	0	44.85460774723207	-10.00172799238534	0	60.08849483520186	1.04874207744188	-5.000194021041084	0	0	44.85460774723207	-10.00172799238534	0	60.08849483520186	1.04874207744188	-5.000194021041084	0	0	-1.089657320400627	-28.93509962049806	-9.689538759239586	0	-13.93960855323039	0	75.00310096268043	44.99756299908244	0	0	-5.39088585529289	22.86563948796248	7.828007123049908	42.29532215599388	44.99756299908244	0	0
10.23333333333333	4.97065353568846	-60.57743526140686	-28.59645059566896	0	0.9399999999999999	0	44.85493998251394	-10.00171435901294	0	60.08833665063385	1.048739316600342	-5.000192034213946	0	0	44.85493998251394	-10.00171435901294	0	60.08833665063385	1.048739316600342	-5.000192034213946	0	0	-1.091966285886959	-28.92574679944762	-9.685484276800265	0	-13.94085007789257	0	75.00309427856885	44.99757826885993	0	0	-5.385923607895728	22.85765508614957	7.828445698356593	42.32996559999846	44.99757826885993	0	0
10.25	4.979445342525198	-60.64264056937767	-28.61683233822152	0	0.9399999999999999	0	44.85531860128015	-10.00169892779525	0	60.08815627457781	1.048736168444273	-5.000189791789929	0	0	44.85531860128015	-10.00169892779525	0	60.08815627457781	1.048736168444273	-5.000189791789929	0	0	-1.092766197932211	-28.9121362938959	-9.683777473581292	0	-13.9422668416801	0	75.00308666128579	44.99759558648582	0	0	-5.380307491989068	22.84522132592286	7.831363478189636	42.38658430016842	44.99759558648582	0	0
10.26666666666667	5.004314090131149	-60.71819668596019	-28.65600357163541	0	0.9399999999999999	0	44.8558618461262	-10.00167706450593	0	60.08789715968771	1.048731646036299	-5.000186631146939	0	0	44.8558618461262	-10.00167706450593	0	60.08789715968771	1.048731646036299	-5.000186631146939	0	0	-1.098734252982871	-28.88034900966495	-9.685238296366585	0	-13.94430481771612	0	75.00307573195406	44.99762021165858	0	0	-5.381888380015528	22.81581893824466	7.83445771457651	42.51987102784045	44.99762021165858	0	0
10.28333333333333	4.999008566297903	-60.76034684349199	-28.66077665812109	0	0.9399999999999999	0	44.85617547574716	-10.00166455791981	0	60.08774747212622	1.048729033495502	-5.000184830238289	0	0	44.85617547574716	-10.00166455791981	0	60.08774747212622	1.048729033495502	-5.000184830238289	0	0	-1.10059091038464	-28.86767074560261	-9.680184524875493	0	-13.94548346084078	0	75.00306942216133	44.99763433628245	0	0	-5.376832571910778	22.80403219140778	7.833534703221869	42.56182850195979	44.99763433628245	0	0
10.3	4.965301877996404	-60.77782217130463	-28.62050015765185	0	0.9399999999999999	0	44.85614309056485	-10.00166602667518	0	60.08776281074299	1.048729301204868	-5.000185052536953	0	0	44.85614309056485	-10.00166602667518	0	60.08776281074299	1.048729301204868	-5.000185052536953	0	0	-1.090877061459251	-28.87861794488997	-9.668897608005395	0	-13.94536496407304	0	75.00307007370567	44.99763273613367	0	0	-5.35850347484118	22.81345685619056	7.830652767589699	42.48585943824826	44.99763273613367	0	0
10.31666666666667	4.942350498834598	-60.80332151068852	-28.59961133152016	0	0.9399999999999999	0	44.85621241314701	-10.00166336561765	0	60.08772967459241	1.048728722869938	-5.000184675712156	0	0	44.85621241314701	-10.00166336561765	0	60.08772967459241	1.048728722869938	-5.000184675712156	0	0	-1.087800412232014	-28.88467020064006	-9.659762086401706	0	-13.94562731729885	0	75.00306867903119	44.9976357758506	0	0	-5.347536225684292	22.81936040737302	7.827540130273446	42.42753272368419	44.9976357758506	0	0
10.33333333333333	4.953951303479324	-60.84628221940977	-28.63684974228293	0	0.9399999999999999	0	44.85655738164796	-10.0016497260599	0	60.0875648440104	1.048725846033574	-5.00018271802175	0	0	44.85655738164796	-10.0016497260599	0	60.0875648440104	1.048725846033574	-5.00018271802175	0	0	-1.102677371317223	-28.86972274361083	-9.656855388574058	0	-13.94692626641787	0	75.0030617387433	44.9976512161597	0	0	-5.35795445018929	22.80818696632716	7.822953325584932	42.49044553839091	44.9976512161597	0	0
10.35	4.947031192716351	-60.87392034267049	-28.64402759241101	0	0.9399999999999999	0	44.8567998848786	-10.00163982025027	0	60.08744931617452	1.048723829692461	-5.000181277324844	0	0	44.8567998848786	-10.00163982025027	0	60.08744931617452	1.048723829692461	-5.000181277324844	0	0	-1.108455470726817	-28.86089546834295	-9.65063960533312	0	-13.94783353386433	0	75.00305685991557	44.99766232571859	0	0	-5.357501724409223	22.80100598289153	7.818910922881149	42.4750420967928	44.99766232571859	0	0
10.36666666666667	4.924711677549473	-60.88482489876154	-28.6122275634363	0	0.9399999999999999	0	44.85688799785289	-10.00163645200327	0	60.08740714640312	1.048723093691105	-5.000180800945355	0	0	44.85688799785289	-10.00163645200327	0	60.08740714640312	1.048723093691105	-5.000180800945355	0	0	-1.097807935066618	-28.85670808529231	-9.639284607533176	0	-13.94816739523253	0	75.00305508720436	44.99766617713615	0	0	-5.338254772701633	22.79459451610695	7.816060593457583	42.41176770763209	44.99766617713615	0	0
